<?xml version="1.0" standalone="no"?><!DOCTYPE svg PUBLIC "-//W3C//DTD SVG 1.1//EN" "http://www.w3.org/Graphics/SVG/1.1/DTD/svg11.dtd"><svg t="1577206407263" class="icon" viewBox="0 0 1024 1024" version="1.1" xmlns="http://www.w3.org/2000/svg" p-id="6111" xmlns:xlink="http://www.w3.org/1999/xlink" width="200" height="200"><defs><style type="text/css"></style></defs><path d="M512 0C229.257143 0 0 229.257143 0 512s229.257143 512 512 512 512-229.257143 512-512S794.742857 0 512 0z m0 937.142857c-234.742857 0-425.142857-190.4-425.142857-425.142857s190.4-425.142857 425.142857-425.142857 425.142857 190.4 425.142857 425.142857-190.4 425.142857-425.142857 425.142857z m6.4-608.8c60.571429 0 101.714286 38.628571 106.285714 95.314286 0.342857 4.8 4.342857 8.457143 9.142857 8.457143h64.8c2.971429 0 5.371429-2.4 5.371429-5.371429 0-99.085714-78.171429-168.457143-185.942857-168.457143C392.457143 258.285714 320 343.085714 320 483.2v59.771429C320 682.057143 392.457143 765.714286 518.057143 765.714286c107.428571 0 185.942857-67.2 185.942857-161.6 0-2.971429-2.4-5.371429-5.371429-5.371429h-64.914285c-4.8 0-8.685714 3.657143-9.142857 8.342857-4.8 52.685714-45.828571 88.914286-106.285715 88.914286-74.628571 0-116.685714-54.742857-116.685714-152.685714v-60.114286c0.114286-99.428571 42.285714-154.857143 116.8-154.857143z" p-id="6112"></path></svg>