<?xml version="1.0" standalone="no"?><!DOCTYPE svg PUBLIC "-//W3C//DTD SVG 1.1//EN" "http://www.w3.org/Graphics/SVG/1.1/DTD/svg11.dtd"><svg t="1577561179107" class="icon" viewBox="0 0 1024 1024" version="1.1" xmlns="http://www.w3.org/2000/svg" p-id="23943" xmlns:xlink="http://www.w3.org/1999/xlink" width="200" height="200"><defs><style type="text/css"></style></defs><path d="M512 64.302515c-247.25636 0-447.696462 200.440102-447.696462 447.696462 0 247.254314 200.440102 447.696462 447.696462 447.696462s447.696462-200.440102 447.696462-447.696462S759.25636 64.302515 512 64.302515zM527.014972 870.910323c-35.32146 0-63.956637-28.635177-63.956637-63.956637 0-35.323507 28.635177-63.956637 63.956637-63.956637 35.32146 0 63.956637 28.633131 63.956637 63.956637C590.971609 842.275145 562.336432 870.910323 527.014972 870.910323zM738.377844 429.940053c-15.427364 63.98836-60.553121 114.172319-127.039371 141.3104-5.308913 2.185782-21.766746 8.931416-25.576515 13.022595-0.031722 2.310625 1.592264 17.550725 2.279926 24.046672 3.747347 35.101449-21.672602 66.611094-56.80475 70.358441-2.279926 0.249687-4.590552 0.37453-6.870478 0.37453-32.259728 0-59.990303-24.358781-63.487963-57.180304-2.560312-23.795962-6.808056-63.675228 13.896498-100.93176 22.984481-41.378409 65.361637-58.741869 88.158852-68.078515 28.230971-11.523451 45.407166-29.323862 51.090609-52.901861 6.120394-25.419949-1.187035-48.186466-21.797445-67.641563-28.762067-27.200502-75.667354-39.066761-111.330598-28.324092-44.157709 13.366426-74.855872 54.931077-72.950476 98.8084 1.529843 35.288714-25.826202 65.143673-61.114916 66.673515-35.944654 1.905396-65.11195-25.826202-66.673515-61.114916-4.465708-103.023398 62.863746-196.273199 163.701362-226.784096 79.32158-24.01495 174.256766-0.74906 236.214886 57.773821C734.036979 290.316062 755.303328 359.799576 738.377844 429.940053z" p-id="23944"></path></svg>