<?xml version="1.0" standalone="no"?><!DOCTYPE svg PUBLIC "-//W3C//DTD SVG 1.1//EN" "http://www.w3.org/Graphics/SVG/1.1/DTD/svg11.dtd"><svg t="1577561103565" class="icon" viewBox="0 0 1024 1024" version="1.1" xmlns="http://www.w3.org/2000/svg" p-id="22251" xmlns:xlink="http://www.w3.org/1999/xlink" width="200" height="200"><defs><style type="text/css"></style></defs><path d="M85.333333 467.626667a42.026667 42.026667 0 0 1-15.786666-58.453334L133.546667 298.666667c4.693333-8.533333 11.946667-14.506667 20.053333-17.92l334.08-187.733334c6.826667-5.12 15.36-7.68 24.32-7.68 8.96 0 17.493333 2.56 24.32 7.68l337.066667 189.44c8.106667 4.266667 14.933333 11.093333 18.773333 19.626667l61.866667 107.52c11.946667 20.48 4.693333 46.506667-15.36 58.026667l-42.666667 24.746666v211.626667c0 16.213333-8.96 30.293333-22.613333 37.546667l-337.066667 189.44c-6.826667 5.12-15.36 7.68-24.32 7.68-8.96 0-17.493333-2.56-24.32-7.68l-337.066667-189.44A42.282667 42.282667 0 0 1 128 704v-236.373333c-12.8 7.253333-29.013333 7.68-42.666667 0m426.666667-290.56v285.866666l254.293333-142.933333L512 177.066667M213.333333 678.826667l256 144.213333v-286.293333L213.333333 392.96v285.866667m597.333334 0v-137.386667l-213.333334 123.733333c-14.08 7.68-29.866667 7.253333-42.666666 0.426667v157.44l256-144.213333m-219.733334-108.8l267.946667-154.88-24.746667-43.093334-267.946666 154.88 24.746666 43.093334z" fill="" p-id="22252"></path></svg>