<?xml version="1.0" standalone="no"?><!DOCTYPE svg PUBLIC "-//W3C//DTD SVG 1.1//EN" "http://www.w3.org/Graphics/SVG/1.1/DTD/svg11.dtd"><svg t="1577561337886" class="icon" viewBox="0 0 1024 1024" version="1.1" xmlns="http://www.w3.org/2000/svg" p-id="28412" xmlns:xlink="http://www.w3.org/1999/xlink" width="200" height="200"><defs><style type="text/css"></style></defs><path d="M851.7 57.2H172.3C112.5 57.2 64 105.7 64 165.5v693c0 59.8 48.5 108.3 108.3 108.3h679.4c59.8 0 108.3-48.5 108.3-108.3v-693c0-59.8-48.5-108.3-108.3-108.3zM272.4 820.6c-46.4 0-83.9-37.6-83.9-83.9 0-46.3 37.6-83.9 83.9-83.9 46.4 0 83.9 37.6 83.9 83.9 0 46.3-37.5 83.9-83.9 83.9z m318.3-19h-109c5.4-306.8-285.1-274.3-285.1-274.3V425.6c405.8 0 394.1 376 394.1 376z m219 0h-116c-1.8-536-497.1-486.2-497.1-486.2V207.9c656.9 0 613.1 593.7 613.1 593.7z" p-id="28413"></path></svg>