<?xml version="1.0" standalone="no"?><!DOCTYPE svg PUBLIC "-//W3C//DTD SVG 1.1//EN" "http://www.w3.org/Graphics/SVG/1.1/DTD/svg11.dtd"><svg t="1578374683378" class="icon" viewBox="0 0 1024 1024" version="1.1" xmlns="http://www.w3.org/2000/svg" p-id="1820" xmlns:xlink="http://www.w3.org/1999/xlink" width="200" height="200"><defs><style type="text/css"></style></defs><path d="M832 1024H192a192 192 0 0 1-192-192V192a192 192 0 0 1 192-192h640c105.984 0 192 85.952 192 192v640c0 106.048-86.016 192-192 192z m64-832c0-35.392-28.608-64-64-64H192a64 64 0 0 0-64 64v640a64 64 0 0 0 64 64h640c35.392 0 64-28.608 64-64V192z m-160 576c-41.6 0-76.224-26.88-89.472-64h-141.056c-13.248 37.12-47.872 64-89.472 64a96 96 0 1 1 0-192c41.6 0 76.224 26.88 89.472 64h140.992c13.248-37.12 47.872-64 89.472-64a96 96 0 1 1 0.064 192z m0-128c-17.6 0-32 14.336-32 32s14.4 32 32 32 32-14.336 32-32-14.4-32-32-32z m-128-192c-41.6 0-76.224-26.88-89.472-64h-140.992c-13.312 37.12-47.872 64-89.536 64a96 96 0 1 1 0-192c41.664 0 76.224 26.88 89.536 64h140.992c13.248-37.12 47.872-64 89.472-64 52.992 0 96 43.008 96 96S660.992 448 608 448z m-320-128a32 32 0 1 0 0.021333 64.021333A32 32 0 0 0 288 320z" p-id="1821"></path></svg>