<?xml version="1.0" standalone="no"?><!DOCTYPE svg PUBLIC "-//W3C//DTD SVG 1.1//EN" "http://www.w3.org/Graphics/SVG/1.1/DTD/svg11.dtd"><svg t="1577180313239" class="icon" viewBox="0 0 1024 1024" version="1.1" xmlns="http://www.w3.org/2000/svg" p-id="5021" xmlns:xlink="http://www.w3.org/1999/xlink" width="200" height="200"><defs><style type="text/css"></style></defs><path d="M934.4 409.6c-8.533333-17.066667-21.333333-25.6-38.4-25.6h-337.066667l38.4-294.4c4.266667-21.333333-12.8-46.933333-38.4-46.933333-12.8 0-29.866667 4.266667-38.4 17.066666l-426.666666 512c-17.066667 17.066667-12.8 46.933333 4.266666 59.733334 8.533333 4.266667 21.333333 8.533333 29.866667 8.533333h337.066667l-38.4 294.4c-4.266667 17.066667 8.533333 38.4 25.6 42.666667 17.066667 8.533333 38.4 4.266667 51.2-12.8l426.666666-512c8.533333-12.8 12.8-29.866667 4.266667-42.666667z" p-id="5022"></path></svg>